<?xml version="1.0" standalone="no"?>
<!DOCTYPE svg PUBLIC "-//W3C//DTD SVG 20010904//EN"
 "http://www.w3.org/TR/2001/REC-SVG-20010904/DTD/svg10.dtd">
<svg version="1.0" xmlns="http://www.w3.org/2000/svg"
 width="500.000000pt" height="500.000000pt" viewBox="0 0 500.000000 500.000000"
 preserveAspectRatio="xMidYMid meet">

<g transform="translate(0.000000,500.000000) scale(0.100000,-0.100000)"
fill="#000000" stroke="none">
<path d="M0 2500 l0 -2500 2500 0 2500 0 0 2500 0 2500 -2500 0 -2500 0 0
-2500z m1506 164 c51 -24 78 -75 78 -149 0 -112 -61 -170 -180 -169 -109 1
-166 53 -172 157 -4 70 15 117 59 150 54 39 146 44 215 11z m2623 16 c53 -15
81 -47 81 -93 0 -33 -7 -46 -42 -81 -24 -23 -54 -49 -68 -58 -24 -17 -24 -17
48 -17 l72 -1 0 -40 0 -40 -141 0 -141 0 6 33 c4 24 28 53 91 112 47 44 85 85
85 92 0 18 -38 35 -60 28 -11 -4 -23 -17 -26 -31 -5 -20 -12 -24 -44 -24 -48
0 -55 10 -37 52 17 41 38 58 80 68 46 11 58 11 96 0z m428 -16 c38 -24 56 -73
56 -149 0 -118 -42 -169 -138 -169 -106 0 -144 60 -137 215 3 48 40 101 82
116 40 15 105 9 137 -13z m-3887 -24 l0 -40 -80 0 c-78 0 -80 -1 -80 -25 0
-23 3 -24 68 -27 l67 -3 3 -37 3 -38 -70 0 -71 0 0 -60 0 -60 -55 0 -55 0 0
165 0 165 135 0 135 0 0 -40z m385 28 c65 -30 72 -122 12 -169 -20 -16 -20
-17 17 -83 l37 -66 -60 0 -61 0 -30 60 c-22 43 -36 60 -50 60 -18 0 -20 -7
-20 -60 l0 -60 -55 0 -55 0 0 165 0 165 120 0 c71 0 130 -5 145 -12z m828 -69
l67 -80 0 80 0 81 50 0 50 0 0 -165 0 -165 -49 0 c-49 0 -50 0 -113 75 l-63
76 -3 -76 -3 -75 -49 0 -50 0 0 165 0 165 48 -1 c46 0 48 -1 115 -80z m607 42
l0 -40 -52 -3 -53 -3 -3 -122 -3 -123 -49 0 -49 0 -3 123 -3 122 -52 3 -53 3
0 40 0 39 160 0 160 0 0 -39z m410 -1 l0 -40 -90 0 c-83 0 -90 -1 -90 -20 0
-18 7 -20 75 -20 l75 0 0 -40 0 -40 -75 0 c-73 0 -75 -1 -75 -25 0 -25 1 -25
90 -25 l90 0 0 -40 0 -40 -145 0 -145 0 0 165 0 165 145 0 145 0 0 -40z m291
-36 l64 -77 3 77 3 76 49 0 50 0 0 -165 0 -165 -47 1 c-47 0 -49 2 -113 76
l-65 76 -3 -76 -3 -77 -49 0 -50 0 0 165 0 165 49 0 c48 0 49 0 112 -76z m555
56 c52 -26 74 -68 74 -145 0 -124 -53 -165 -213 -165 l-97 0 0 165 0 165 97 0
c77 0 105 -4 139 -20z"/>
<path d="M1367 2590 c-23 -18 -27 -29 -27 -74 0 -40 5 -57 20 -71 25 -23 76
-24 98 -1 22 22 24 119 2 140 -27 27 -64 29 -93 6z"/>
<path d="M4440 2601 c-5 -11 -10 -50 -10 -86 0 -78 12 -105 45 -105 33 0 45
27 45 105 0 78 -12 105 -45 105 -14 0 -29 -8 -35 -19z"/>
<path d="M902 2573 c2 -23 9 -29 33 -31 37 -4 71 19 62 42 -5 12 -19 16 -52
16 -45 0 -46 -1 -43 -27z"/>
<path d="M3610 2515 l0 -85 29 0 c46 0 60 10 71 49 11 41 -1 99 -22 113 -7 4
-28 8 -45 8 l-33 0 0 -85z"/>
</g>
</svg>
